<svg width="32" height="32" viewBox="0 0 32 32" fill="none" xmlns="http://www.w3.org/2000/svg">
  <path d="M26.2593 20.955C26.3542 21.5632 26.1521 21.814 25.947 21.814C25.7235 21.814 25.4449 21.569 25.1142 21.0819C24.7867 20.6034 24.6673 20.0529 24.8295 19.7761C24.9367 19.5917 25.1602 19.511 25.4418 19.6118C25.9899 19.8078 26.2042 20.5947 26.2593 20.955ZM23.2406 22.2781C23.8957 22.7998 24.0947 23.4195 23.7488 23.8547C23.5559 24.094 23.2436 24.2266 22.8701 24.2266C22.5027 24.2266 22.1292 24.0997 21.869 23.8864C21.275 23.3964 21.1005 22.6038 21.4863 22.1512C21.6393 21.9754 21.8843 21.8774 22.1812 21.8774C22.5394 21.8803 22.916 22.0215 23.2406 22.2781ZM22.1445 27.3078C24.9642 27.3078 28.0228 28.2187 31.4089 31.0434C31.7487 31.3259 32.1988 30.9743 31.9049 30.6226C28.5769 26.668 25.5 25.9156 22.4292 25.2786C18.6757 24.5004 16.7439 22.5115 15.3968 20.3267C15.1304 19.8914 15.0079 19.9693 14.9834 20.5284C14.9528 21.2116 15.0049 22.1166 15.1671 23.0044C15.0171 23.0102 14.864 23.0102 14.711 23.0102C9.34092 23.0102 4.98427 18.9114 4.98427 13.8528C4.98427 8.7942 9.33786 4.69543 14.711 4.69543C20.081 4.69543 24.4376 8.7942 24.4376 13.8528C24.4376 14.2131 24.4193 14.5676 24.3764 14.9164C23.6661 14.7954 22.267 14.7809 21.2873 14.8616C20.9199 14.8905 20.9689 15.0548 21.2505 15.1009C24.4652 15.6485 26.6757 17.525 27.1778 20.9262C27.19 21.004 27.2972 21.0271 27.34 20.9608C28.6626 18.8826 29.4219 16.4499 29.4219 13.8499C29.425 6.20004 22.8364 0 14.711 0C6.58549 0 0 6.20004 0 13.8499C0 21.4998 6.58549 27.7027 14.711 27.7027C16.8694 27.7027 19.0064 27.3078 22.1445 27.3078Z" fill="#FF8C00"/>
</svg>
